<?xml version="1.0" encoding="utf-8"?>
<!-- Generator: Adobe Illustrator 26.5.2, SVG Export Plug-In . SVG Version: 6.00 Build 0)  -->
<svg version="1.1" id="Calque_2_00000089547797100253662510000003346831718904360359_"
	 xmlns="http://www.w3.org/2000/svg" xmlns:xlink="http://www.w3.org/1999/xlink" x="0px" y="0px" viewBox="0 0 300 78.7"
	 style="enable-background:new 0 0 300 78.7;" xml:space="preserve">
<style type="text/css">
	.st0{fill:#FFFFFF;}
	.st1{fill:#83B81A;}
</style>
<g id="Calque_1-2">
	<g>
		<g>
			<path class="st0" d="M114.9,11.4H86.5V8.1h28.4V11.4z M102.3,34.8H99V15h3.3V34.8L102.3,34.8z"/>
			<path class="st0" d="M145.6,34.8H121c-1.1,0-1.6-0.6-1.6-1.7V9.8c0-1.1,0.5-1.7,1.6-1.7h24.5v3.3h-22.9v20.1h22.9L145.6,34.8
				L145.6,34.8z M144.7,22h-19.8v-3.3h19.8V22z"/>
			<path class="st0" d="M179.4,25.9h3.3v0.4c0,1.1-0.1,2.1-0.1,3c-0.1,0.9-0.3,1.7-0.6,2.3c-0.3,0.7-0.8,1.2-1.5,1.7
				s-1.5,0.8-2.6,1.1c-1.1,0.3-2.4,0.5-4.1,0.6s-3.6,0.2-5.8,0.2h-2.5c-2.3,0-4.2-0.1-5.8-0.2s-3-0.3-4.1-0.6
				c-1.1-0.3-2-0.7-2.6-1.1s-1.1-1.1-1.5-1.8c-0.4-0.7-0.6-1.6-0.7-2.6c-0.1-1-0.1-2.2-0.1-3.5v-7.7c0-1.3,0.1-2.5,0.1-3.5
				c0.1-1,0.3-1.9,0.7-2.6c0.4-0.7,0.9-1.3,1.5-1.8s1.5-0.9,2.6-1.1c1.1-0.3,2.4-0.5,4.1-0.6c1.6-0.1,3.5-0.2,5.8-0.2h2.5
				c2.2,0,4.2,0.1,5.8,0.2c1.6,0.1,3,0.3,4.1,0.6c1.1,0.3,2,0.6,2.6,1.1c0.6,0.5,1.1,1.1,1.5,1.8c0.3,0.7,0.6,1.6,0.6,2.6
				c0.1,1,0.1,2.2,0.1,3.5V18h-3.3v-0.4c0-1.5-0.1-2.6-0.2-3.5c-0.2-0.9-0.6-1.5-1.3-1.9c-0.7-0.4-1.9-0.7-3.4-0.9
				c-1.5-0.1-3.7-0.2-6.4-0.2h-2.5c-1.8,0-3.4,0-4.7,0.1c-1.3,0.1-2.4,0.2-3.2,0.3s-1.5,0.4-2,0.7c-0.5,0.3-0.9,0.7-1.1,1.2
				c-0.2,0.5-0.4,1.1-0.4,1.8c-0.1,0.7-0.1,1.5-0.1,2.5v7.8c0,0.9,0,1.8,0.1,2.5c0.1,0.7,0.2,1.3,0.4,1.8c0.2,0.5,0.6,0.9,1.1,1.2
				c0.5,0.3,1.1,0.5,2,0.7c0.8,0.2,1.9,0.3,3.2,0.3c1.3,0.1,2.9,0.1,4.7,0.1h2.5c2.8,0,4.9-0.1,6.4-0.2c1.5-0.1,2.7-0.4,3.4-0.8
				s1.2-1,1.3-1.7c0.2-0.7,0.2-1.7,0.2-2.9L179.4,25.9L179.4,25.9z"/>
			<path class="st0" d="M191.4,34.8h-3.3V8.1h3.3V34.8z M215.4,22.5h-21.8v-3.3h21.8V22.5z M221.1,34.8h-3.3V8.1h3.3V34.8z"/>
			<path class="st0" d="M254.5,28.6l-2.3,2.4l-19.4-19.5h-3.3v23.4h-3.3v-25c0-1.1,0.6-1.7,1.7-1.7h5.5c0.3,0,0.5,0,0.7,0.1
				s0.4,0.2,0.5,0.3C234.6,8.6,254.5,28.6,254.5,28.6z M261.1,34.8h-3.3V8.1h3.3V34.8z"/>
			<path class="st0" d="M280.1,35.2c-2.3,0-4.2-0.1-5.8-0.2c-1.6-0.1-3-0.3-4-0.6c-1.1-0.3-2-0.7-2.6-1.1c-0.6-0.5-1.1-1.1-1.5-1.8
				c-0.4-0.7-0.6-1.6-0.7-2.6s-0.1-2.2-0.1-3.5v-7.7c0-1.3,0-2.5,0.1-3.5c0.1-1,0.3-1.9,0.7-2.6s0.9-1.3,1.5-1.8
				c0.6-0.5,1.5-0.9,2.6-1.1c1.1-0.3,2.5-0.5,4-0.6c1.6-0.1,3.5-0.2,5.8-0.2h5.2c2.2,0,4.2,0.1,5.8,0.2c1.6,0.1,3,0.3,4,0.6
				c1.1,0.3,2,0.7,2.6,1.1c0.6,0.5,1.1,1.1,1.5,1.8c0.3,0.7,0.5,1.6,0.6,2.6s0.1,2.2,0.1,3.5v7.7c0,1.3,0,2.5-0.1,3.5
				c-0.1,1-0.3,1.9-0.6,2.6c-0.3,0.7-0.8,1.3-1.5,1.8c-0.6,0.5-1.5,0.9-2.6,1.1s-2.4,0.5-4,0.6c-1.6,0.1-3.5,0.2-5.8,0.2H280.1z
				 M296.7,17.6c0-1.5-0.1-2.6-0.2-3.5s-0.6-1.5-1.3-2s-1.9-0.7-3.4-0.9c-1.5-0.1-3.7-0.2-6.4-0.2h-5.2c-1.8,0-3.4,0-4.7,0.1
				s-2.4,0.2-3.2,0.3c-0.9,0.2-1.5,0.4-2,0.7c-0.5,0.3-0.9,0.7-1.1,1.2c-0.2,0.5-0.4,1.1-0.4,1.8c0,0.7-0.1,1.5-0.1,2.5v7.8
				c0,0.9,0,1.8,0.1,2.5c0,0.7,0.2,1.3,0.4,1.8c0.2,0.5,0.6,0.9,1.1,1.2c0.5,0.3,1.1,0.5,2,0.7s1.9,0.3,3.2,0.3s2.9,0.1,4.7,0.1h5.2
				c2.8,0,4.9-0.1,6.4-0.2c1.5-0.1,2.7-0.5,3.4-0.9c0.7-0.5,1.2-1.1,1.3-2c0.2-0.9,0.2-2,0.2-3.4L296.7,17.6L296.7,17.6z"/>
			<g>
				<path class="st0" d="M122.7,62.5h3.3v0.4c0,1.1-0.1,2.2-0.1,3c-0.1,0.9-0.3,1.7-0.7,2.3c-0.3,0.7-0.8,1.2-1.5,1.7
					c-0.7,0.4-1.5,0.8-2.6,1.1c-1.1,0.3-2.4,0.5-4.1,0.6c-1.6,0.1-3.6,0.2-5.8,0.2h-2.5c-2.3,0-4.2-0.1-5.8-0.2s-3-0.3-4.1-0.6
					c-1.1-0.3-2-0.7-2.6-1.1c-0.6-0.5-1.1-1.1-1.5-1.8c-0.3-0.7-0.6-1.6-0.7-2.6C94,64.5,94,63.3,94,62v-7.7c0-1.3,0.1-2.5,0.1-3.5
					c0.1-1,0.3-1.9,0.7-2.6c0.3-0.7,0.8-1.3,1.5-1.8c0.6-0.5,1.5-0.9,2.6-1.1s2.4-0.5,4.1-0.6c1.6-0.1,3.5-0.2,5.8-0.2h2.5
					c2.2,0,4.2,0.1,5.8,0.2c1.6,0.1,3,0.3,4.1,0.6c1.1,0.3,2,0.7,2.6,1.1s1.2,1.1,1.5,1.8c0.3,0.7,0.6,1.6,0.7,2.6s0.1,2.2,0.1,3.5
					v0.4h-3.3v-0.4c0-1.5-0.1-2.6-0.2-3.5s-0.6-1.5-1.3-2c-0.7-0.4-1.9-0.7-3.4-0.9c-1.6-0.2-3.7-0.2-6.4-0.2h-2.5
					c-1.8,0-3.4,0-4.7,0.1s-2.4,0.2-3.2,0.3c-0.8,0.2-1.5,0.4-2,0.7c-0.5,0.3-0.8,0.7-1.1,1.2c-0.2,0.5-0.4,1.1-0.4,1.8
					c-0.1,0.7-0.1,1.5-0.1,2.5V62c0,0.9,0,1.8,0.1,2.5c0.1,0.7,0.2,1.3,0.4,1.8c0.2,0.5,0.6,0.9,1.1,1.2c0.5,0.3,1.2,0.5,2,0.7
					s1.9,0.3,3.2,0.3c1.3,0.1,2.8,0.1,4.7,0.1h2.5c2.8,0,4.9-0.1,6.4-0.2c1.5-0.1,2.7-0.4,3.4-0.8c0.7-0.4,1.2-1,1.3-1.7
					c0.2-0.7,0.2-1.7,0.2-2.9V62.5L122.7,62.5z"/>
				<path class="st0" d="M155.3,71.4h-23.1c-1.1,0-1.6-0.6-1.6-1.7v-25h3.3v23.4h21.5L155.3,71.4L155.3,71.4z"/>
				<path class="st0" d="M185,71.4h-24.6c-1.1,0-1.6-0.6-1.6-1.7V46.4c0-1.1,0.5-1.7,1.6-1.7H185v3.3h-22.9v20.1H185L185,71.4
					L185,71.4z M184.1,58.7H164v-3.3h20.1V58.7z"/>
				<path class="st0" d="M223.5,70.6l-2.9,1.6L206.9,48h-3.4l-13.6,24.2l-2.9-1.6l14.1-25c0.3-0.6,0.8-0.9,1.4-0.9h5.4
					c0.6,0,1.1,0.3,1.4,0.9L223.5,70.6L223.5,70.6z M209.3,58.7H197v-3.3h12.3V58.7z"/>
				<path class="st0" d="M254.9,65.2l-2.3,2.3L233.2,48h-3.3v23.4h-3.3v-25c0-1.1,0.6-1.7,1.7-1.7h5.5c0.3,0,0.5,0,0.7,0.1
					c0.2,0.1,0.4,0.2,0.5,0.3L254.9,65.2L254.9,65.2z M261.5,71.4h-3.3V44.8h3.3V71.4z"/>
			</g>
		</g>
		<g>
			<path class="st1" d="M16.8,0h37.4C63.5,0,71,7.5,71,16.8v45.1c0,9.2-7.5,16.8-16.8,16.8H16.8C7.5,78.7,0,71.2,0,61.9V16.8
				C0,7.5,7.5,0,16.8,0z"/>
			<g>
				<path class="st0" d="M61,14.2H11.3V8.4H61V14.2z M38.9,55.1h-5.8V18.8h5.8C38.9,18.8,38.9,55.1,38.9,55.1z"/>
				<path class="st0" d="M58.4,55.8h5.8v0.7c0,2-0.1,3.8-0.2,5.3s-0.5,2.9-1.1,4.1c-0.6,1.2-1.5,2.1-2.6,2.9s-2.7,1.4-4.6,1.9
					s-4.3,0.8-7.1,1c-2.8,0.2-6.2,0.3-10.1,0.3H34c-4,0-7.4-0.1-10.2-0.3c-2.8-0.2-5.2-0.6-7.1-1c-1.9-0.5-3.4-1.2-4.6-2
					s-2-1.9-2.6-3.2c-0.6-1.3-1-2.8-1.2-4.5c-0.2-1.8-0.2-3.8-0.2-6.1V41.3c0-2.3,0.1-4.4,0.2-6.1c0.2-1.8,0.6-3.3,1.2-4.6
					c0.6-1.3,1.5-2.3,2.6-3.2s2.6-1.5,4.6-2s4.3-0.8,7.1-1c2.8-0.2,6.2-0.3,10.2-0.3h4.4c3.9,0,7.3,0.1,10.1,0.3
					c2.8,0.2,5.2,0.5,7.1,1c1.9,0.5,3.4,1.1,4.6,2s2,1.9,2.6,3.1c0.6,1.3,1,2.8,1.1,4.5s0.2,3.8,0.2,6.1V42h-5.8v-0.8
					c0-2.5-0.1-4.5-0.4-6c-0.3-1.5-1.1-2.6-2.3-3.4c-1.3-0.8-3.3-1.3-6-1.5s-6.5-0.4-11.3-0.4H34c-3.2,0-5.9,0-8.2,0.2
					c-2.3,0.1-4.1,0.3-5.6,0.6s-2.6,0.7-3.5,1.2c-0.9,0.5-1.5,1.2-1.9,2.1c-0.4,0.8-0.7,1.9-0.8,3.1c-0.1,1.2-0.1,2.7-0.1,4.3v13.6
					c0,1.7,0,3.1,0.1,4.3c0.1,1.2,0.3,2.3,0.8,3.1c0.4,0.8,1.1,1.5,1.9,2.1c0.8,0.5,2,0.9,3.5,1.2s3.3,0.5,5.6,0.6
					c2.2,0.1,5,0.2,8.2,0.2h4.4c4.8,0,8.6-0.1,11.3-0.3c2.7-0.2,4.7-0.7,6-1.4s2.1-1.7,2.3-3c0.3-1.3,0.4-3,0.4-5.1L58.4,55.8
					L58.4,55.8z"/>
			</g>
		</g>
	</g>
</g>
</svg>
